<svg xmlns="http://www.w3.org/2000/svg" version="1.1" xmlns:xlink="http://www.w3.org/1999/xlink" xmlns:svgjs="http://svgjs.com/svgjs" width="512" height="512" x="0" y="0" viewBox="0 0 512 512" style="enable-background:new 0 0 512 512" xml:space="preserve"><g><path d="m256.2 374.4-33-33c-32.3-32.3-50.1-75.3-50.1-121s17.8-88.6 50.1-121l33-33 33 33c32.3 32.3 50.1 75.3 50.1 121s-17.8 88.6-50.1 121zm0-285L234.6 111c-60.4 60.4-60.4 158.6 0 219l21.6 21.6 21.6-21.6c60.4-60.4 60.4-158.6 0-219z" fill="#fcc0b9" data-original="#000000"></path><path d="M256.2 371.1h-8.6v-27.8l13.8 13.4 13.7 13.8z" fill="#fcc0b9" data-original="#000000"></path><path d="M294.3 371.1h-57.6l41.1-41.1c36.6-36.6 52.4-88.7 42.4-139.5l-1-5.3 4.5-3c28.2-18.8 61-28.8 95-28.8h46.7V200c-.1 94.3-76.8 171.1-171.1 171.1zm-18.5-16.2h18.5c85.4 0 154.9-69.5 154.9-154.9v-30.5h-30.5c-29 0-57.1 8-81.5 23.2 8.9 54.4-8.8 109.6-47.8 148.7zM52.8 365.4c-10.5-10.3-19.5-21.8-26.9-34.2L2 291.1l40.1-23.9c7-4.2 14.3-7.9 22.3-11.2l6.3 14.9c-7.3 3.1-14 6.4-20.2 10.2l-26.2 15.7L39.9 323c6.6 11.2 14.8 21.6 24.3 30.9z" fill="#fcc0b9" data-original="#000000"></path><path d="M275.8 371.1h-58.2c-45.7 0-88.6-17.8-121-50.1-32.3-32.3-50.1-75.3-50.1-121v-46.7h46.7c34.2 0 67.2 10.1 95.5 29.1l4.4 3-1 5.3c-9.9 50.7 6 102.8 42.5 139.3zm-213-201.6V200c0 41.4 16.1 80.3 45.4 109.5 29.3 29.3 68.1 45.4 109.5 45.4h19.1l-13.5-13.5c-39-39-56.7-94.1-47.9-148.4-24.6-15.4-52.8-23.5-82-23.5z" fill="#fcc0b9" data-original="#000000"></path><path d="m256.2 374.4-12.5-12.5 9.5-7.2 5.1 5.8 3.4-3.5-3.3 3.6 5.4 6.2z" fill="#fcc0b9" data-original="#000000"></path><path d="M376.5 445.5c-42.9 0-82.5-19.5-108.6-53.4l-28.6-37.2h55.1c36.5 0 72-13 99.9-36.7l3.5-2.9 4.3 1.4c25.8 8.6 48.2 24.7 64.9 46.3l23.5 30.6-30.6 23.5c-24.2 18.6-53.1 28.4-83.4 28.4zm-104.4-74.4 8.6 11.2c23 29.9 57.9 47.1 95.8 47.1 26.8 0 52.2-8.7 73.5-25l17.8-13.7-13.8-17.8c-13.8-17.9-32-31.4-53-39.3-30.3 24.2-68 37.5-106.8 37.5z" fill="#fcc0b9" data-original="#000000"></path><path d="M135.4 445.5c-29.1 0-58.5-9.2-83.3-28.3l-30.6-23.5L45 363c16.6-21.6 39.1-37.6 64.9-46.3l5.1 15.4c-22.7 7.6-42.5 21.7-57.2 40.8l-13.7 17.8L62 404.3c25.6 19.7 57.2 28.2 89.2 24s60.4-20.5 80.1-46.1l8.6-11.2h-22.2v-16.2h55L244.1 392c-27 35.1-67.6 53.5-108.7 53.5zM322.6 202.3l-2.3-11.9c-3.7-18.6-10.7-36.3-21-52.5l-4.3-6.7 6.7-4.4c10.9-7.1 22.3-12.9 33.9-17.3l43.7-16.4 16.4 43.8c2.7 7.3 5 15.2 7 24.6l1.8 8.4-8.5 1.3c-22.8 3.4-44 11.6-63.1 24.4zm-5.5-66.1c7.2 12.6 12.7 25.9 16.4 39.8 16-9.2 33.2-15.7 51.3-19.3-1.3-5.1-2.7-9.7-4.4-14.1L369.7 114l-28.6 10.7c-8.1 3.1-16.2 6.9-24 11.5zM189.8 202.7l-10.1-6.8c-18.7-12.6-39.4-20.8-61.7-24.3l-8.4-1.3 1.8-8.3c2.1-9.8 4.5-18.3 7.5-26.1l16.7-43.6 43.6 16.7c11.2 4.3 22.1 9.9 32.4 16.6l6.7 4.4-4.4 6.8c-10.7 16.6-18.1 34.8-21.8 54.1zm-60.7-45.6c17.6 3.7 34.3 10.2 49.8 19.1 3.9-14.5 9.6-28.3 17.2-41.4-7.3-4.3-14.9-7.9-22.6-10.9L145 113l-11 28.5c-1.8 4.8-3.5 10-4.9 15.6zM453.1 371.2l-5.7-6.2c-12.8-14-28.8-24.8-46.5-31.5l-1.3 1-1.6-2.1c-.4-.1-.7-.2-1.1-.4l.2-.7-7.5-9.6c20.8-16.3 37.2-37.6 47.3-61.5l3.1-7.4 7.4 3.1c8 3.3 15.4 7 22.5 11.3l40.1 23.9-24 40.1c-7.3 12.3-16.3 23.8-26.9 34.1zm-38.7-49.7c14.4 6.5 27.6 15.4 39 26.4 7.2-7.8 13.4-16.2 18.7-25l15.7-26.2-26.2-15.6c-4.2-2.6-8.6-4.9-13.2-7-8.4 17.5-20 33.6-34 47.4z" fill="#fcc0b9" data-original="#000000"></path></g></svg>